<?xml version="1.0" encoding="UTF-8" standalone="no"?>
<!DOCTYPE svg PUBLIC "-//W3C//DTD SVG 1.1//EN"
"http://www.w3.org/Graphics/SVG/1.1/DTD/svg11.dtd" [
	<!ENTITY color "#505050">
]>
<!-- Copied from http://commons.wikimedia.org/wiki/File:Copy_font_awesome.svg -->
<svg height="1024" width="1024" viewBox="0 -256 1024 1024" xmlns="http://www.w3.org/2000/svg">
  <g
     transform="matrix(0.457144,0,0,-0.457144,102.39898,548.57216)"
     id="g3039">
    <path
       d="m 1696,1152 q 40,0 68,-28 28,-28 28,-68 V -160 q 0,-40 -28,-68 -28,-28 -68,-28 H 736 q -40,0 -68,28 -28,28 -28,68 V 128 H 96 Q 56,128 28,156 0,184 0,224 v 672 q 0,40 20,88 20,48 48,76 l 408,408 q 28,28 76,48 48,20 88,20 h 416 q 40,0 68,-28 28,-28 28,-68 v -328 q 68,40 128,40 h 416 z M 1152,939 853,640 h 299 V 939 z M 512,1323 213,1024 h 299 v 299 z m 196,-647 316,316 v 416 H 640 V 992 q 0,-40 -28,-68 -28,-28 -68,-28 H 128 V 256 h 512 v 256 q 0,40 20,88 20,48 48,76 z m 956,-804 V 1024 H 1280 V 608 q 0,-40 -28,-68 -28,-28 -68,-28 H 768 v -640 h 896 z"
       style="fill:&color;" />
  </g>
</svg>
