<?xml version="1.0" encoding="UTF-8" standalone="no"?>
<!DOCTYPE svg PUBLIC "-//W3C//DTD SVG 1.1//EN"
"http://www.w3.org/Graphics/SVG/1.1/DTD/svg11.dtd" [
	<!ENTITY fillcolor "#666666">
]>
<!-- Derived from the following sources:
http://commons.wikimedia.org/wiki/File:Magnifying_glass_icon.svg
https://openclipart.org/detail/22077/chain-by-nicubunu
 -->
<svg
   xmlns:dc="http://purl.org/dc/elements/1.1/"
   xmlns:cc="http://creativecommons.org/ns#"
   xmlns:rdf="http://www.w3.org/1999/02/22-rdf-syntax-ns#"
   xmlns:svg="http://www.w3.org/2000/svg"
   xmlns="http://www.w3.org/2000/svg"
   version="1.1"
   width="512"
   height="512"
   id="svg2">
  <path
     d="m 287.88058,285.33633 a 129.75666,129.75666 0 1 0 -1.69617,1.69617 l 144.17407,144.17407 m -77.17553,-99.22569 93.2891,93.28911 -22.05015,22.05015 -93.2891,-93.2891"
     id="path4"
     style="fill:none;stroke:#000000;stroke-width:30.53097725;stroke-linecap:round" />
  <g
     transform="matrix(1.8735221,0,0,1.8735221,81.513975,80.747936)"
     id="g3029"
     style="fill:&fillcolor;;fill-opacity:1;stroke:#000000;stroke-width:2.59611249;stroke-miterlimit:4;stroke-opacity:1;stroke-dasharray:none">
    <path
       d="m 69.2031,76.880534 c 8.373,-0.034 16.416,-3.172 23.685,-7.103 6.477,-3.64 12.657,-9.063 14.652,-16.484 1.7049,-6.554 -0.8346,-13.781 -5.6085,-18.417 -5.0115,-4.69 -12.396,-5.61 -18.942,-4.62 -7.618,1.21 -14.891,4.26 -21.4,8.35 -5.847,3.786 -11.13,9.365 -12.328,16.461 -0.922,6.036 1.172,11.010407 5.507,15.255407 2.595356,-2.329407 4.124,-4.912407 5.494,-8.366407 0.195,-1.699 -0.699,-3.281 -0.091,-5.165 2.76978,-4.168763 4.703,-7.396 8.312,-9.658 5.406,-3.097 11.319,-5.677 17.58,-6.274 3.574,-0.328 7.847,0.48 9.788,3.842 1.811,2.777 1.436,6.529 -0.561,9.104 -3.669,4.931 -9.46,7.621 -15.025,9.837 -3.388,1.268 -6.057644,2.402237 -9.699644,2.434237 -0.853,3.785 -3.340593,6.56317 -5.489593,9.77517 1.404,0.241 2.702237,1.019593 4.127237,1.028593 z"
       id="path1088-6"
       style="fill:&fillcolor;;fill-opacity:1;stroke:#000000;stroke-width:2.59611249;stroke-miterlimit:4;stroke-opacity:1;stroke-dasharray:none" />
    <path
       d="m 50.924018,43.153115 c -8.373,0.034 -16.416001,3.172 -23.685001,7.103 -6.477,3.64 -12.656998,9.063 -14.651998,16.484 -1.7049,6.554 0.8346,13.781 5.608499,18.417 5.011499,4.69 12.395999,5.61 18.941999,4.62 7.618001,-1.21 14.891001,-4.26 21.400001,-8.35 5.847,-3.786 11.13,-9.365 12.328,-16.461 0.922,-6.036 -1.172,-11.010407 -5.507,-15.255407 -2.595356,2.329407 -4.124,4.912407 -5.494,8.366407 -0.195,1.699 0.699,3.281 0.091,5.165 -2.76978,4.168763 -4.703,7.396 -8.312,9.658 -5.406,3.097 -11.319,5.677 -17.580001,6.274 -3.574,0.328 -7.847,-0.48 -9.788,-3.842 -1.811,-2.777 -1.436,-6.529 0.561,-9.104 3.669,-4.931 9.46,-7.621 15.025001,-9.837 3.388,-1.268 6.057644,-2.402237 9.699644,-2.434237 0.853,-3.785 3.340593,-6.56317 5.489593,-9.77517 -1.404,-0.241 -2.702237,-1.019593 -4.127237,-1.028593 z"
       id="path1088-6-0"
       style="fill:&fillcolor;;fill-opacity:1;stroke:#000000;stroke-width:2.59611249;stroke-miterlimit:4;stroke-opacity:1;stroke-dasharray:none" />
  </g>
</svg>
