<?xml version="1.0" encoding="UTF-8" standalone="no"?>
<!-- Created with Inkscape (http://www.inkscape.org/) -->

<svg
   xmlns:dc="http://purl.org/dc/elements/1.1/"
   xmlns:cc="http://creativecommons.org/ns#"
   xmlns:rdf="http://www.w3.org/1999/02/22-rdf-syntax-ns#"
   xmlns:svg="http://www.w3.org/2000/svg"
   xmlns="http://www.w3.org/2000/svg"
   xmlns:xlink="http://www.w3.org/1999/xlink"
   version="1.1"
   width="1400"
   height="560"
   id="svg2">
  <metadata
     id="metadata11">
    <rdf:RDF>
      <cc:Work
         rdf:about="">
        <dc:format>image/svg+xml</dc:format>
        <dc:type
           rdf:resource="http://purl.org/dc/dcmitype/StillImage" />
        <dc:title></dc:title>
      </cc:Work>
    </rdf:RDF>
  </metadata>
  <defs
     id="defs9">
    <radialGradient
       cx="367.19043"
       cy="308.88992"
       r="359.46356"
       fx="367.19043"
       fy="308.88992"
       id="radialGradient5249"
       xlink:href="#linearGradient3769"
       gradientUnits="userSpaceOnUse"
       gradientTransform="matrix(0.92927321,0,0,0.59113506,14.700335,135.38562)" />
    <linearGradient
       id="linearGradient3769">
      <stop
         id="stop5251"
         style="stop-color:#ffffff;stop-opacity:1"
         offset="0" />
      <stop
         id="stop3773"
         style="stop-color:#9e9e9e;stop-opacity:1"
         offset="1" />
    </linearGradient>
    <radialGradient
       cx="367.19043"
       cy="308.88992"
       r="359.46356"
       fx="367.19043"
       fy="308.88992"
       id="radialGradient3789"
       xlink:href="#linearGradient3769"
       gradientUnits="userSpaceOnUse"
       gradientTransform="matrix(2.2350951,0,0,1.0837054,-17.353625,-116.64387)" />
  </defs>
  <rect
     width="1605.2867"
     height="777.83649"
     x="0.70869845"
     y="-170.81621"
     id="rect2997"
     style="fill:url(#radialGradient3789);fill-opacity:1;stroke:#000000;stroke-width:1.41740012;stroke-linecap:square;stroke-linejoin:miter;stroke-miterlimit:0;stroke-opacity:1;stroke-dasharray:none" />
  <path
     d="m 912.17665,299.76996 a 116.09749,116.09749 0 1 0 -1.5176,1.51762 l 128.99725,128.99724 m -69.05145,-88.78045 83.46885,83.4688 -19.7291,19.72899 -83.46877,-83.46879"
     id="path4"
     style="fill:none;stroke:#000000;stroke-width:27.31705666;stroke-linecap:round" />
  <g
     transform="matrix(1.676301,0,0,1.676301,727.53383,116.71808)"
     id="g3029"
     style="fill:#666666;fill-opacity:1;stroke:#000000;stroke-width:2.59611249;stroke-miterlimit:4;stroke-opacity:1;stroke-dasharray:none">
    <path
       d="m 69.2031,76.880534 c 8.373,-0.034 16.416,-3.172 23.685,-7.103 6.477,-3.64 12.657,-9.063 14.652,-16.484 1.7049,-6.554 -0.8346,-13.781 -5.6085,-18.417 -5.0115,-4.69 -12.396,-5.61 -18.942,-4.62 -7.618,1.21 -14.891,4.26 -21.4,8.35 -5.847,3.786 -11.13,9.365 -12.328,16.461 -0.922,6.036 1.172,11.010407 5.507,15.255407 2.595356,-2.329407 4.124,-4.912407 5.494,-8.366407 0.195,-1.699 -0.699,-3.281 -0.091,-5.165 2.76978,-4.168763 4.703,-7.396 8.312,-9.658 5.406,-3.097 11.319,-5.677 17.58,-6.274 3.574,-0.328 7.847,0.48 9.788,3.842 1.811,2.777 1.436,6.529 -0.561,9.104 -3.669,4.931 -9.46,7.621 -15.025,9.837 -3.388,1.268 -6.057644,2.402237 -9.699644,2.434237 -0.853,3.785 -3.340593,6.56317 -5.489593,9.77517 1.404,0.241 2.702237,1.019593 4.127237,1.028593 z"
       id="path1088-6"
       style="fill:#666666;fill-opacity:1;stroke:#000000;stroke-width:2.59611249;stroke-miterlimit:4;stroke-opacity:1;stroke-dasharray:none" />
    <path
       d="m 50.924018,43.153115 c -8.373,0.034 -16.416001,3.172 -23.685001,7.103 -6.477,3.64 -12.656998,9.063 -14.651998,16.484 -1.7049,6.554 0.8346,13.781 5.608499,18.417 5.011499,4.69 12.395999,5.61 18.941999,4.62 7.618001,-1.21 14.891001,-4.26 21.400001,-8.35 5.847,-3.786 11.13,-9.365 12.328,-16.461 0.922,-6.036 -1.172,-11.010407 -5.507,-15.255407 -2.595356,2.329407 -4.124,4.912407 -5.494,8.366407 -0.195,1.699 0.699,3.281 0.091,5.165 -2.76978,4.168763 -4.703,7.396 -8.312,9.658 -5.406,3.097 -11.319,5.677 -17.580001,6.274 -3.574,0.328 -7.847,-0.48 -9.788,-3.842 -1.811,-2.777 -1.436,-6.529 0.561,-9.104 3.669,-4.931 9.46,-7.621 15.025001,-9.837 3.388,-1.268 6.057644,-2.402237 9.699644,-2.434237 0.853,-3.785 3.340593,-6.56317 5.489593,-9.77517 -1.404,-0.241 -2.702237,-1.019593 -4.127237,-1.028593 z"
       id="path1088-6-0"
       style="fill:#666666;fill-opacity:1;stroke:#000000;stroke-width:2.59611249;stroke-miterlimit:4;stroke-opacity:1;stroke-dasharray:none" />
  </g>
  <text
     x="588.80182"
     y="481.94846"
     transform="scale(1.0740472,0.93105778)"
     id="text2985-0"
     xml:space="preserve"
     style="font-size:108.74693298px;font-style:normal;font-variant:normal;font-weight:normal;font-stretch:normal;text-align:center;line-height:85.00000238%;letter-spacing:0px;word-spacing:0px;writing-mode:lr-tb;text-anchor:middle;fill:#666666;fill-opacity:1;stroke:#000000;stroke-width:5.24315596;stroke-linecap:round;stroke-linejoin:round;stroke-miterlimit:4;stroke-opacity:1;stroke-dasharray:none;font-family:Arial Black;-inkscape-font-specification:'Arial Black,'"><tspan
       x="588.80182"
       y="481.94846"
       id="tspan3773-7"
       style="font-size:108.74693298px;font-style:normal;font-variant:normal;font-weight:normal;font-stretch:normal;text-align:center;line-height:85.00000238%;writing-mode:lr-tb;text-anchor:middle;fill:#666666;fill-opacity:1;stroke:#000000;stroke-width:5.24315596;stroke-linecap:round;stroke-linejoin:round;stroke-miterlimit:4;stroke-opacity:1;stroke-dasharray:none;font-family:Arial Black;-inkscape-font-specification:'Arial Black,'">Inspector</tspan></text>
  <text
     x="557.74506"
     y="280.58374"
     transform="scale(0.8897683,1.1238881)"
     id="text2985-0-5"
     xml:space="preserve"
     style="font-size:164.15542603px;font-style:normal;font-variant:normal;font-weight:normal;font-stretch:normal;text-align:center;line-height:85.00000238%;letter-spacing:0px;word-spacing:0px;writing-mode:lr-tb;text-anchor:middle;fill:#666666;fill-opacity:1;stroke:#000000;stroke-width:7.91463614;stroke-linecap:round;stroke-linejoin:round;stroke-miterlimit:4;stroke-opacity:1;stroke-dasharray:none;font-family:Arial Black;-inkscape-font-specification:'Arial Black,'"><tspan
       x="557.74506"
       y="280.58374"
       id="tspan3074"
       style="font-size:164.15542603px;font-style:normal;font-variant:normal;font-weight:normal;font-stretch:normal;text-align:center;line-height:85.00000238%;writing-mode:lr-tb;text-anchor:middle;fill:#666666;fill-opacity:1;stroke:#000000;stroke-width:7.91463614;stroke-linecap:round;stroke-linejoin:round;stroke-miterlimit:4;stroke-opacity:1;stroke-dasharray:none;font-family:Arial Black;-inkscape-font-specification:'Arial Black,'">Link</tspan></text>
</svg>
