<?xml version="1.0" encoding="UTF-8" standalone="no"?>
<!DOCTYPE svg PUBLIC "-//W3C//DTD SVG 1.1//EN"
"http://www.w3.org/Graphics/SVG/1.1/DTD/svg11.dtd" [
	<!ENTITY color "#505050">
]>
<!-- Copied from http://commons.wikimedia.org/wiki/File:Share_alt_font_awesome.svg -->
<svg height="1024" width="1024" viewBox="0 -256 1024 1024" xmlns="http://www.w3.org/2000/svg">
  <g
     transform="matrix(0.457144,0,0,-0.457144,102.39898,563.20077)">
    <path
       d="m 1792,896 q 0,-26 -19,-45 L 1261,339 q -19,-19 -45,-19 -26,0 -45,19 -19,19 -19,45 V 640 H 928 Q 830,640 752.5,634 675,628 598.5,612.5 522,597 465.5,570 409,543 360,500.5 311,458 280,399.5 249,341 231.5,261 214,181 214,80 q 0,-55 5,-123 0,-6 2.5,-23.5 2.5,-17.5 2.5,-26.5 0,-15 -8.5,-25 -8.5,-10 -23.5,-10 -16,0 -28,17 -7,9 -13,22 -6,13 -13.5,30 Q 130,-42 127,-35 0,250 0,416 q 0,199 53,333 162,403 875,403 h 224 v 256 q 0,26 19,45 19,19 45,19 26,0 45,-19 l 512,-512 q 19,-19 19,-45 z"
       style="fill:&color;" />
  </g>
</svg>
